<?xml version="1.0" encoding="UTF-8" standalone="no"?>
<!-- Generator: Adobe Illustrator 24.2.1, SVG Export Plug-In . SVG Version: 6.00 Build 0)  -->

<svg
   version="1.1"
   id="Layer_1"
   x="0px"
   y="0px"
   width="360px"
   height="603.6px"
   viewBox="0 0 360 603.6"
   style="enable-background:new 0 0 360 603.6;"
   xml:space="preserve"
   sodipodi:docname="jar-fixed.svg"
   inkscape:version="1.3.2 (091e20e, 2023-11-25)"
   xmlns:inkscape="http://www.inkscape.org/namespaces/inkscape"
   xmlns:sodipodi="http://sodipodi.sourceforge.net/DTD/sodipodi-0.dtd"
   xmlns="http://www.w3.org/2000/svg"
   xmlns:svg="http://www.w3.org/2000/svg"><defs
   id="defs2" /><sodipodi:namedview
   id="namedview2"
   pagecolor="#ffffff"
   bordercolor="#000000"
   borderopacity="0.25"
   inkscape:showpageshadow="2"
   inkscape:pageopacity="0.0"
   inkscape:pagecheckerboard="0"
   inkscape:deskcolor="#d1d1d1"
   showgrid="false"
   inkscape:zoom="0.74482682"
   inkscape:cx="164.46776"
   inkscape:cy="322.89385"
   inkscape:window-width="1440"
   inkscape:window-height="796"
   inkscape:window-x="0"
   inkscape:window-y="25"
   inkscape:window-maximized="1"
   inkscape:current-layer="Layer_1"><sodipodi:guide
     position="0,603.59999"
     orientation="0,360"
     id="guide4"
     inkscape:locked="false" /><sodipodi:guide
     position="360.00001,603.59999"
     orientation="603.59998,0"
     id="guide5"
     inkscape:locked="false" /><sodipodi:guide
     position="360.00001,0"
     orientation="0,-360"
     id="guide6"
     inkscape:locked="false" /><sodipodi:guide
     position="0,0"
     orientation="-603.59998,0"
     id="guide7"
     inkscape:locked="false" /><inkscape:grid
     id="grid7"
     units="px"
     originx="0"
     originy="0"
     spacingx="1"
     spacingy="1"
     empcolor="#0099e5"
     empopacity="0.30196078"
     color="#0099e5"
     opacity="0.14901961"
     empspacing="5"
     dotted="false"
     gridanglex="30"
     gridanglez="30"
     visible="false" /><sodipodi:guide
     position="0,603.59999"
     orientation="0,360"
     id="guide8"
     inkscape:locked="false" /><sodipodi:guide
     position="360.00001,603.59999"
     orientation="603.59998,0"
     id="guide9"
     inkscape:locked="false" /><sodipodi:guide
     position="360.00001,0"
     orientation="0,-360"
     id="guide10"
     inkscape:locked="false" /><sodipodi:guide
     position="0,0"
     orientation="-603.59998,0"
     id="guide11"
     inkscape:locked="false" /></sodipodi:namedview>
<style
   type="text/css"
   id="style1">
	.st0{fill-rule:evenodd;clip-rule:evenodd;}
</style>
<path
   d="M 0,-0.00390625 V 361.90039 L 0.09960937,343.19922 0.5,306.69922 0.69921875,290.80078 c 0,-0.3 0.20117187,-13.80039 0.20117188,-14.40039 0,-0.3 0.19882817,-11.49961 0.29882807,-13.09961 C 1.1992187,263.10078 1.5,251.7 1.5,251.5 1.5,251.3 1.8007812,241.00078 1.8007812,240.80078 3.3007797,200.70082 5.4007856,188.80037 9.8007813,166.90039 18.400773,123.70043 20.899624,123.50077 35.099609,109.30078 15.899629,99.300791 20.700792,89.499209 31.300781,80.199219 21.700791,69.999229 20.700012,64.399208 32.5,53.199219 17.300015,32.899239 29.099268,20.699989 78.699219,9.5 120.99918,9.5e-6 156.79963,0.0999999 181.59961,0 220.09957,-0.0999999 257.00004,1.8000092 294.5,11 c 3.6,0.799999 6.80039,1.69961 9.90039,2.599609 21.09998,6.099994 29.5004,12.200395 33.40039,16.400391 2.6,2.699997 5.5,7.100787 4,12.800781 -1.8,6.799993 -5.9,7.799611 -6,9.59961 -0.2,2.799997 8.49883,8.798835 7.79883,15.798828 -0.8,8.899991 -6.59922,11.100392 -6.69922,12.90039 0,3.499997 9.39961,4.400795 7.59961,17.800782 -0.9,6.499989 -11.40039,10.899999 -11.90039,12.499999 -0.7,2.1 5.10079,3.00041 10.80078,25.90039 9.59999,38.59996 10.79961,68.39883 11.09961,72.79883 0,0.2 0.59961,10.1 0.59961,10.5 0.1,1.4 0.59961,10.90039 0.59961,11.40039 0,0.5 0.50156,9.19922 0.60156,12.19922 0,0.3 0.49961,12.30078 0.59961,12.80078 0,0.3 0.5,13.10039 0.5,13.40039 0.1,1.7 0.5,13.60039 0.5,13.90039 0,0.3 0.30039,10.59883 0.40039,14.29883 0.1,3.2 0.39844,12.79961 0.39844,14.59961 0,0.3 0.30078,13.00078 0.30078,14.80078 0,0.3 0.30078,14.60039 0.30078,14.90039 0,1.8 0.19922,14.60039 0.19922,14.90039 0,0.3 0.19922,14.49883 0.19922,14.79883 0,0.3 0.10156,14.40117 0.10156,14.70117 0,0.3 0.0996,11.79844 0.0996,14.39844 v 11.40039 10.20117 c 0,5.6 3.39997,91.99966 -29.5,137.59961 -10.19999,14.19999 -41.80123,40.4 -100.70117,42 -0.2,0 -7.69883,0.19922 -9.79883,0.19922 -0.5,0 -12.39961,0.20117 -12.59961,0.20117 l -15.90039,0.0996 -20.5,0.0996 h -17.5 c -7.29999,0 -16.40117,-0.10078 -18.20117,-0.30078 -0.2,0 -9.49922,-1.29883 -9.69922,-1.29883 C 72.000053,594.4004 54.800773,586 46.300781,581 c -24.399975,-14.49999 -31.200003,-51.80001 -34,-66.5 L 9.0996094,498 C 3.7996147,469.80003 0,440.90072 0,378.80078 V 603.59961 H 360 V -0.00390625 Z"
   style="fill:#ffffff;stroke-width:0.931916"
   id="path11" /><g
   id="g2">
	<g
   id="g1">
		<path
   id="path_3613ca272c3b4cfd23641b7ac71770af"
   class="st0"
   d="M304.4,13.6c21.1,6.1,29.5,12.2,33.4,16.4    c2.6,2.7,5.5,7.1,4,12.8c-1.8,6.8-5.9,7.8-6,9.6c-0.2,2.8,8.5,8.8,7.8,15.8c-0.8,8.9-6.6,11.1-6.7,12.9c0,3.5,9.4,4.4,7.6,17.8    c-0.9,6.5-11.4,10.9-11.9,12.5c-0.7,2.1,5.1,3,10.8,25.9c9.6,38.6,10.8,68.4,11.1,72.8c0,0.2,0.6,10.1,0.6,10.5    c0.1,1.4,0.6,10.9,0.6,11.4c0,0.5,0.5,9.2,0.6,12.2c0,0.3,0.5,12.3,0.6,12.8c0,0.3,0.5,13.1,0.5,13.4c0.1,1.7,0.5,13.6,0.5,13.9    c0,0.3,0.3,10.6,0.4,14.3c0.1,3.2,0.4,12.8,0.4,14.6c0,0.3,0.3,13,0.3,14.8c0,0.3,0.3,14.6,0.3,14.9c0,1.8,0.2,14.6,0.2,14.9    c0,0.3,0.2,14.5,0.2,14.8c0,0.3,0.1,14.4,0.1,14.7c0,0.3,0.1,11.8,0.1,14.4c0,4.8,0,10,0,11.4c0,1.2,0,9.8,0,10.2    c0,5.6,3.4,92-29.5,137.6c-10.2,14.2-41.8,40.4-100.7,42c-0.2,0-7.7,0.2-9.8,0.2c-0.5,0-12.4,0.2-12.6,0.2l-15.9,0.1l-20.5,0.1    l-17.5,0c-7.3,0-16.4-0.1-18.2-0.3c-0.2,0-9.5-1.3-9.7-1.3C72,594.4,54.8,586,46.3,581c-24.4-14.5-31.2-51.8-34-66.5L9.1,498    C3.8,469.8,0,440.9,0,378.8l0-16.9l0.1-18.7l0.4-36.5l0.2-15.9c0-0.3,0.2-13.8,0.2-14.4c0-0.3,0.2-11.5,0.3-13.1    c0-0.2,0.3-11.6,0.3-11.8c0-0.2,0.3-10.5,0.3-10.7c1.5-40.1,3.6-52,8-73.9c8.6-43.2,11.1-43.4,25.3-57.6    c-19.2-10-14.4-19.8-3.8-29.1C21.7,70,20.7,64.4,32.5,53.2C17.3,32.9,29.1,20.7,78.7,9.5C121,0,156.8,0.1,181.6,0    C220.1-0.1,257,1.8,294.5,11C298.1,11.8,301.3,12.7,304.4,13.6z M57.5,554.2c0.6,6.2,39.5,14.8,76.6,16.9c0.3,0,11.2,0.6,12.7,0.7    c103.8,5.7,116.6-8.2,123.3-11.4c-26.2-11.2-77.3-13.1-88-13.6c-25.4-1.2-75.3,0-79,7c2.1,2.8,15.1,3.8,34.6,4.5    c26.7,1.1,34.8-1.7,37.1,1.2c0.5,0.7,0.6,2.2,0.3,2.9c-2.7,7.1-48.6,3.9-63.7,1.9c-17.9-2.3-18-8.8-16-12.8    c5.7-11.4,28.4-9.4,28.1-11.8c-0.1-0.5-23.6,2.3-26.2,2.7c-20.4,3-39.2,8.2-39.5,11.5C57.5,554,57.5,554.1,57.5,554.2z     M164.8,537.4c1.1,0.2,2.3,0.4,10.7,1l16.4,1.1c17.3,1.2,40.4,3.4,57.3,6.9c10.2,2.1,20.4,5.3,24.8,8.2c6,4,1.8,7.2,4.4,9.1    c2.5,1.8,18-6.2,19.7-9.2c-2.2-6.5-36.7-12.9-66.7-15c-0.2,0-9.9-0.6-10.2-0.7c-0.2,0-10.6-0.6-10.9-0.6c-0.2,0-10.7-0.5-10.9-0.5    c-0.2,0-9.1-0.3-10.4-0.4C177.4,536.9,167.2,537,164.8,537.4z M60.8,37.8c-0.3,6.1,23.3,13.8,60.1,18c0.2,0,9.3,1,10.6,1.2    c7,0.7,8.5,0.9,23.6,0.9l15.3,0l17.9-0.1c0.5,0,11.4,0,11.7,0c0.2,0,9-0.1,10.2-0.1c24.5-0.3,34.7-1.1,55.5-5    c26-4.9,37.4-11.1,37.4-14.3c0.2-9.7-58.5-20.9-118.8-21c-32.5,0-120.8,5.3-123.4,20C60.8,37.6,60.8,37.7,60.8,37.8z M58.6,52.3    c-22.3-9.4-15.2-16.6-18.8-17.4c-1.5-0.3-3.7,3.5-2.5,6c1.6,3.3,9.5,8.6,9.5,11.9c0,0.5-0.8,4.5-9.3,9.6c-8.7,5.2,8,13.9,7.9,17.8    c0,2.7-10.2,10.6-10.3,13.6c0,0.1,0,0.2,0,0.3c0.3,2.8,5.7,5.8,9,6.8c1.1,0.5,1.9,1,2.5,1.5c0.7,0.5-4.8-7.7,1.4,1.6    c3.3,4.9-5.7,9.5-15.9,24.6c-7,10.4-7.2,21.3-11.8,43.2c-0.9,4.1-2,9.4-2.1,9.8c-3.2,16.5-3.5,39.5-3.2,42    c1.8-5.2-0.7-2.6,8.7-38.6c4.5-17.2,8.9-24.1,11.8-19.5c4.2,6.6-10.1,12.7-14.9,97.1l-1.3,22.2c-0.2,2.8-0.3,8.1-0.4,8.2    c0,0.2-0.3,9.6-0.3,9.8c0,1.3-0.1,6.2-0.2,11.1c0,0.2-0.1,9.2-0.1,12.1c0,1.5-0.1,12.1-0.1,12.9c0,1.9,0,13.2,0,13.4l0.1,29.6    l0.1,24.7c0,2.7,0,11.7,0,12.5c0,0.7,0,11.3,0,11.5c0,0.2-0.1,10.1-0.1,10.3c-0.2,21.6-0.6,35.1,6.6,64.7    c7.7,31.5,15.1,51.8,27.2,56.3c-3.6-4.1-5.4-6.6-5.3-8.6c0.4-4.4,15.3-12,22.5-13.1c0.3,0,4.2-2,14.9-3.2c0.5-0.1,13-1.5,13.2-1.5    c1.8-0.2,11-1.2,12.8-1.4c1.7-0.2,10.2-1,12.5-1.2c53.7-5.2,102.7-5.8,149.8,3.2c37,7,37.2,17.3,29.9,24.1    c-5,4.7-14.3,8.8-25.8,12.2c-14,4.2-21.2,4.5-23.6,6.2c10.2,3.2,42.1-9.5,51.2-15.1c8.5-5.2,18.9-23.6,24.9-49.6    c5.2-22.5,6.7-45.8,7.8-76.5c0-0.2,0.3-10,0.3-10.2c0-0.2,0.3-10.4,0.3-10.9c0-0.2,0.3-11.2,0.3-11.5c0-0.5,0.2-11.7,0.2-12    c0-0.2,0.2-12.1,0.2-12.4c0-0.3,0.1-11.9,0.2-12.7c0-1.6,0.1-12.7,0.1-12.9c0-1.6,0.1-11.3,0.1-13.1c0-1.6,0-12.9,0-13.1    c0-0.3,0-12.8,0-13.1c0-0.3-0.1-11.4-0.1-13c0-0.3-0.1-12.5-0.1-12.7c0-0.2-0.2-12.2-0.2-12.4l-0.3-21c-0.6-38-1.7-48.9-4.8-67.6    c-0.1-0.7-1.6-9-2-11.5c-1.8-10.6-2.1-12.8-1-14.1c1.7-2.1,5.7-0.3,6.6-1.1c1.1-1-2.3-14.1-3.5-19c-3.3-13.3-4.9-14.2-5.6-15.6    c0,0.1-3.2-4.7-9.7-14.2c-1-1.3-3.1-3.7,10.1-11.7c6.6-4,6-6.9,3.6-9.2c-4.6-4.5-11.4-5.8-9.6-11.9c1.6-5.1,9.9-8.4,9.8-12.1    c-0.1-3.3-11.6-10.6-11.6-14.3c0-3.4,8.2-8.4,9.9-12.1c1.8-4.1-4-7.6-4.7-7.2c-1.9,1,7.1,13-26.2,22.9    c-27.3,8.2-60.1,10.3-64,10.5c-0.2,0-9.6,0.6-10,0.6c-0.2,0-11.7,0.6-11.9,0.7c-31.9,1.6-72,1.4-99.6-2.6    c-16.4-2.4-35.5-7.1-47.6-11.2C63.5,54.3,60.9,53.3,58.6,52.3z M318.4,37.7c-0.9-2.6-0.9-3.1-1.4-3.6c-1.3-1.3-5.2-0.8-6.2,0.8    c-0.4,0.6,0.2,7.6,1.8,8.8C313.6,43.2,315,42.5,318.4,37.7z M319.3,96.3c0,0.5-0.1,1-0.2,1.3c-4.2,9.3-62.2,18.4-125.9,19.4    c-44.5,0.7-87.3-0.4-130.5-11.3l-13.4-3.5l-2.2-1.1c-0.8-0.5-1.3-1.2-1.4-2c-0.2-1.5-0.4-4.1,1.9-5.5c4.3-2.8,14.9,3.6,63,8.4    c39.3,3.9,74.2,3.5,79,3.5c39.7-0.2,70.1-3.9,76.1-4.7c41.4-5.1,49.7-11.4,53-7.2C319.2,94.4,319.3,95.5,319.3,96.3z M320.2,70.2    c0.1,3.8-5.6,7-24,12.9C262,94.4,205.2,100,153.8,97.5C103.7,95.1,44.3,81.3,44.3,72c0-0.5,0.8-2.2,1.8-3.5    c1.7-2.2,2.2-2.3,8.1-0.3c3.5,1.2,13,3.5,20.8,5.3c67.1,15,155.2,14.3,217.2-1.5c22.6-5.8,27.3-6.1,27.9-2.2    C320.2,69.9,320.2,70,320.2,70.2z M321.2,147.4c-0.3-4.2-1.9-11.8-5.4-16.2c-12-3.3-30-0.6-41.7,3.2    C290.2,141.6,310.4,146.6,321.2,147.4z M274.3,143.2c-6.5-2.7-12.8-5.5-11.6-10.2c1.2-4.5,11-7.4,22-9.4c19.6-3.6,32-1,35,0.7    c6.2,3.5,10.8,20.7,9,26.8c-1.4,4.7-5.6,4.4-5.6,4.4C314.1,155.7,290.8,150,274.3,143.2z M33.5,420.7c-1.9,13.7-1.5,34.2,2.9,60    c5.3,31.3,11.9,41.3,15,51.6c8.6-6.2,13.5-6.3,18.1-8.1C60.7,511.9,34.5,479.6,33.5,420.7z M69.5,533    c-16.5,4.9-15.6,10.7-20.3,10.3c-4.7-0.4-4.9-7.2-7.2-13c-0.1-0.2-5.1-10.1-9.6-27.8c-1-4.2-7.2-28.4-8.2-56.1    c-0.5-14.3-0.6-40.8,10.4-46.8c3.3-1.8,8-1.9,7.6,5c-1.1,17.7-0.1,37.8,5.5,58.4c7.3,27,20.2,44.5,24.2,50.2    c6.5,9.1,7.6,9.8,7.1,12.4C78.9,526.7,77.6,530.6,69.5,533z" />
	</g>
</g>
</svg>
